STARTFONT 2.1
COMMENT
COMMENT Converted from OpenType font "Q:\font stuff\winfont\Legacy Serif Md ITC TT Medium.ttf" by "otf2bdf 3.0".
COMMENT
FONT -FreeType-Legacy Serif Md ITC TT-Medium-R-Normal--34-340-72-72-P-161-ISO10646-1
SIZE 34 72 72
FONTBOUNDINGBOX 39 40 -5 -10
STARTPROPERTIES 19
FOUNDRY "FreeType"
FAMILY_NAME "Legacy Serif Md ITC TT"
WEIGHT_NAME "Medium"
SLANT "R"
SETWIDTH_NAME "Normal"
ADD_STYLE_NAME ""
PIXEL_SIZE 34
POINT_SIZE 340
RESOLUTION_X 72
RESOLUTION_Y 72
SPACING "P"
AVERAGE_WIDTH 161
CHARSET_REGISTRY "ISO10646"
CHARSET_ENCODING "1"
FONT_ASCENT 30
FONT_DESCENT 9
COPYRIGHT " (c) Copyright 1997 International Typeface Corporation. All rights reserved."
_OTF_FONTFILE "Q:\font stuff\winfont\Legacy Serif Md ITC TT Medium.ttf"
_OTF_PSNAME "LegacySerifMdITCTTMedium"
ENDPROPERTIES
CHARS 252
STARTCHAR 0020
ENCODING 32
SWIDTH 235 0
DWIDTH 8 0
BBX 0 0 0 0
BITMAP
ENDCHAR
STARTCHAR 0021
ENCODING 33
SWIDTH 352 0
DWIDTH 12 0
BBX 5 22 4 0
BITMAP
78
78
78
78
70
70
70
70
70
70
60
60
20
20
20
20
00
00
60
F0
F0
60
ENDCHAR
STARTCHAR 0022
ENCODING 34
SWIDTH 352 0
DWIDTH 12 0
BBX 7 9 2 13
BITMAP
7E
FE
FE
7E
7E
6E
64
64
64
ENDCHAR
STARTCHAR 0023
ENCODING 35
SWIDTH 500 0
DWIDTH 17 0
BBX 18 22 -1 0
BITMAP
00C100
00C100
00C200
01C200
018200
018200
1FFFC0
3FFFC0
030C00
031C00
031800
061800
061800
7FFF80
FFFF00
083000
083000
083000
106000
106000
106000
106000
ENDCHAR
STARTCHAR 0024
ENCODING 36
SWIDTH 529 0
DWIDTH 18 0
BBX 14 28 2 -4
BITMAP
0200
0200
0200
07F0
3E70
7A30
7A10
7210
FA00
7A00
7E00
7F00
3FC0
0FF0
03F8
02FC
023C
023C
823C
823C
C23C
E278
FFF0
47C0
0200
0200
0200
0200
ENDCHAR
STARTCHAR 0025
ENCODING 37
SWIDTH 676 0
DWIDTH 23 0
BBX 22 22 1 0
BITMAP
1E0080
730080
638100
E3C100
E1C200
E1C200
E1C400
E18800
E18800
731000
3E1000
0023E0
002670
004C38
00DC3C
009C1C
011C1C
011C1C
021C18
021E38
040E30
0403C0
ENDCHAR
STARTCHAR 0026
ENCODING 38
SWIDTH 764 0
DWIDTH 26 0
BBX 24 21 2 0
BITMAP
01F000
067800
081C00
081C00
181C00
1C1C00
1E3906
0FE1FC
07E030
0FF030
3CF860
783C40
701E80
F00F80
F00F00
F00780
F80FC1
7C1FC3
7FFBFE
3FE1FE
0F8078
ENDCHAR
STARTCHAR 0027
ENCODING 39
SWIDTH 352 0
DWIDTH 12 0
BBX 4 9 4 13
BITMAP
70
F0
70
70
70
70
60
20
20
ENDCHAR
STARTCHAR 0028
ENCODING 40
SWIDTH 323 0
DWIDTH 11 0
BBX 9 32 2 -8
BITMAP
0100
0300
0700
0E00
1C00
1C00
3C00
3800
7800
7800
7000
F000
F000
F000
F000
F000
F000
F000
F000
F000
F000
7000
7800
7800
3800
3C00
1C00
0C00
0E00
0700
0300
0180
ENDCHAR
STARTCHAR 0029
ENCODING 41
SWIDTH 323 0
DWIDTH 11 0
BBX 9 32 1 -8
BITMAP
8000
C000
6000
7000
3800
3C00
1C00
1E00
1E00
0E00
0F00
0F00
0F00
0F00
0700
0780
0780
0780
0F00
0F00
0F00
0F00
0E00
1E00
1E00
1C00
3C00
3800
7000
6000
C000
8000
ENDCHAR
STARTCHAR 002A
ENCODING 42
SWIDTH 529 0
DWIDTH 18 0
BBX 13 12 2 10
BITMAP
0860
1CE0
0CC0
0C80
0780
F338
FFF8
4318
0680
0CC0
1CE0
0C60
ENDCHAR
STARTCHAR 002B
ENCODING 43
SWIDTH 529 0
DWIDTH 18 0
BBX 14 14 2 4
BITMAP
0300
0300
0300
0300
0300
0300
0300
FFFC
0300
0300
0300
0300
0300
0300
ENDCHAR
STARTCHAR 002C
ENCODING 44
SWIDTH 235 0
DWIDTH 8 0
BBX 6 10 1 -6
BITMAP
30
38
38
1C
0C
08
18
18
30
C0
ENDCHAR
STARTCHAR 002D
ENCODING 45
SWIDTH 294 0
DWIDTH 10 0
BBX 8 3 1 6
BITMAP
FF
FF
FF
ENDCHAR
STARTCHAR 002E
ENCODING 46
SWIDTH 235 0
DWIDTH 8 0
BBX 4 4 2 0
BITMAP
60
F0
F0
60
ENDCHAR
STARTCHAR 002F
ENCODING 47
SWIDTH 441 0
DWIDTH 15 0
BBX 13 32 0 -8
BITMAP
0018
0018
0018
0030
0030
0030
0060
0060
0040
00C0
00C0
0180
0180
0180
0300
0300
0300
0600
0600
0400
0C00
0C00
0800
1800
1800
3000
3000
3000
6000
6000
6000
C000
ENDCHAR
STARTCHAR 0030
ENCODING 48
SWIDTH 529 0
DWIDTH 18 0
BBX 15 22 1 0
BITMAP
07E0
0E70
1C38
381C
381C
781E
781E
781E
781E
F01E
F01E
F01E
F01E
781E
781E
781E
781E
381C
381C
1C38
0E70
07E0
ENDCHAR
STARTCHAR 0031
ENCODING 49
SWIDTH 529 0
DWIDTH 18 0
BBX 14 22 2 0
BITMAP
0080
0380
0F80
3F80
0F80
0F80
0780
0780
0780
0780
0780
0780
0780
0780
0780
0F80
0F80
0F80
0F80
0F80
1FC0
FFFC
ENDCHAR
STARTCHAR 0032
ENCODING 50
SWIDTH 529 0
DWIDTH 18 0
BBX 15 22 1 0
BITMAP
03E0
0FF8
1878
203C
603C
403C
003C
003C
003C
0078
0070
00F0
01E0
01C0
0380
0700
0E02
1C06
3806
3FFC
7FFC
FFFC
ENDCHAR
STARTCHAR 0033
ENCODING 51
SWIDTH 558 0
DWIDTH 19 0
BBX 14 22 2 0
BITMAP
07E0
0FF0
30F8
6078
4078
0078
0070
00E0
0180
03E0
0FF8
10F8
007C
003C
003C
003C
003C
0038
E078
E070
70C0
3F00
ENDCHAR
STARTCHAR 0034
ENCODING 52
SWIDTH 529 0
DWIDTH 18 0
BBX 16 22 1 0
BITMAP
0018
0038
0038
0078
00F8
01F8
0378
0278
0478
0878
1878
3078
2078
4078
FFFF
FFFF
0078
0078
0078
0078
0078
0078
ENDCHAR
STARTCHAR 0035
ENCODING 53
SWIDTH 558 0
DWIDTH 19 0
BBX 14 22 2 0
BITMAP
07FC
0FFC
0FF8
0800
0800
1000
1800
1F00
3FC0
3FE0
0FF0
03F8
00FC
007C
003C
003C
003C
4038
E038
E070
78E0
1F80
ENDCHAR
STARTCHAR 0036
ENCODING 54
SWIDTH 529 0
DWIDTH 18 0
BBX 14 22 2 0
BITMAP
007C
01C0
0700
0E00
1C00
3C00
3800
7800
7000
F3E0
FFF0
F8F8
F078
F07C
F03C
F03C
F03C
F038
7078
7870
3CE0
0FC0
ENDCHAR
STARTCHAR 0037
ENCODING 55
SWIDTH 529 0
DWIDTH 18 0
BBX 15 22 2 0
BITMAP
FFFE
FFFE
FFFC
C00C
8018
8038
8030
0060
0060
00C0
00C0
0180
0380
0300
0700
0600
0C00
0C00
1800
3800
3000
3000
ENDCHAR
STARTCHAR 0038
ENCODING 56
SWIDTH 529 0
DWIDTH 18 0
BBX 15 22 1 0
BITMAP
07E0
1E78
3C3C
3C3C
383C
7C3C
3C3C
3C3C
3E30
1FC0
07E0
0FF8
1CFC
387E
783E
781E
F01E
781E
781E
781C
3C38
0FE0
ENDCHAR
STARTCHAR 0039
ENCODING 57
SWIDTH 529 0
DWIDTH 18 0
BBX 14 22 2 0
BITMAP
0F80
38E0
70F0
F078
F078
F078
F078
F03C
F03C
F03C
F878
7FF8
1F78
0078
0070
00F0
00E0
01C0
0380
0700
0E00
F000
ENDCHAR
STARTCHAR 003A
ENCODING 58
SWIDTH 235 0
DWIDTH 8 0
BBX 4 15 2 0
BITMAP
60
F0
F0
60
00
00
00
00
00
00
00
60
F0
F0
60
ENDCHAR
STARTCHAR 003B
ENCODING 59
SWIDTH 235 0
DWIDTH 8 0
BBX 6 21 1 -6
BITMAP
38
38
3C
38
00
00
00
00
00
00
00
30
38
38
1C
1C
08
18
18
30
C0
ENDCHAR
STARTCHAR 003C
ENCODING 60
SWIDTH 529 0
DWIDTH 18 0
BBX 12 16 3 3
BITMAP
0010
0020
00C0
0300
0600
1800
3000
F000
FC00
3E00
1F80
07C0
03F0
00F0
0030
0010
ENDCHAR
STARTCHAR 003D
ENCODING 61
SWIDTH 529 0
DWIDTH 18 0
BBX 14 6 2 8
BITMAP
FFFC
0000
0000
0000
0000
FFFC
ENDCHAR
STARTCHAR 003E
ENCODING 62
SWIDTH 529 0
DWIDTH 18 0
BBX 12 15 3 4
BITMAP
C000
E000
F800
7C00
3F00
0F80
07E0
01F0
00C0
0180
0600
0800
3000
C000
8000
ENDCHAR
STARTCHAR 003F
ENCODING 63
SWIDTH 411 0
DWIDTH 14 0
BBX 11 22 2 0
BITMAP
7C00
FE00
FF00
E180
00C0
00C0
00E0
00E0
01E0
07C0
1FC0
3F00
3C00
3000
2000
2000
2000
0000
3000
7800
7800
3000
ENDCHAR
STARTCHAR 0040
ENCODING 64
SWIDTH 764 0
DWIDTH 26 0
BBX 23 22 1 0
BITMAP
003F80
01E0E0
078038
0F001C
1E001C
3C018E
3C078E
781F8E
783B8E
78730E
78630E
F0E30E
F0E70E
F1CB1C
79EE18
78F630
78E3C0
3C0000
1E0000
0F0000
07C0C0
00FF00
ENDCHAR
STARTCHAR 0041
ENCODING 65
SWIDTH 676 0
DWIDTH 23 0
BBX 23 22 0 0
BITMAP
003800
003800
003C00
007C00
007C00
00CE00
00CE00
008F00
018700
018700
030380
030380
060380
07FFC0
0C01C0
0C01E0
1C01E0
1800F0
1800F0
3800F8
7800F8
FE03FE
ENDCHAR
STARTCHAR 0042
ENCODING 66
SWIDTH 617 0
DWIDTH 21 0
BBX 19 22 1 0
BITMAP
FFFC00
3FFF00
1E0F00
1E0780
1E0780
1E0780
1E0780
1E0700
1E0E00
1E1800
1FFE00
1E0F80
1E03C0
1E01E0
1E01E0
1E01E0
1E01E0
1E01E0
1E01C0
1E03C0
3F0700
FFFC00
ENDCHAR
STARTCHAR 0043
ENCODING 67
SWIDTH 676 0
DWIDTH 23 0
BBX 20 22 2 0
BITMAP
00FFF0
0781F0
0E0060
1C0060
380020
780020
700020
F00000
F00000
F00000
F00000
F00000
F00000
F00000
F00000
F00000
780000
780030
3C0020
1E0060
0781E0
00FF80
ENDCHAR
STARTCHAR 0044
ENCODING 68
SWIDTH 764 0
DWIDTH 26 0
BBX 24 22 1 0
BITMAP
FFFF00
1F01E0
1E0070
1E003C
1E001C
1E001E
1E001E
1E000F
1E000F
1E000F
1E000F
1E000F
1E000F
1E000F
1E000F
1E001E
1E001E
1E003C
1E0078
1E00F0
3F03C0
FFFE00
ENDCHAR
STARTCHAR 0045
ENCODING 69
SWIDTH 588 0
DWIDTH 20 0
BBX 18 22 1 0
BITMAP
600FC0
7FF180
1E0080
1E0080
1E0080
1E0000
1E0000
1E0300
1E0200
1E0200
1FFE00
1E7E00
1E0200
1E0200
1E0000
1E0000
1E0040
1E0040
1E00C0
1E01C0
1FFF80
FFFF80
ENDCHAR
STARTCHAR 0046
ENCODING 70
SWIDTH 558 0
DWIDTH 19 0
BBX 17 22 1 0
BITMAP
FFFF80
3E0380
1E0180
1E0180
1E0080
1E0080
1E0000
1E0200
1E0200
1E0600
1FFE00
1FFE00
1E0200
1E0200
1E0000
1E0000
1E0000
1E0000
1E0000
1E0000
3E0000
FFC000
ENDCHAR
STARTCHAR 0047
ENCODING 71
SWIDTH 735 0
DWIDTH 25 0
BBX 23 22 2 0
BITMAP
007FD0
0380F0
0E0030
1C0030
380030
780010
700000
F00000
F00000
F00000
F00000
F003FE
F000F8
F00078
F00078
F00078
780078
780078
3C0078
1E00F8
0780F8
00FFC0
ENDCHAR
STARTCHAR 0048
ENCODING 72
SWIDTH 794 0
DWIDTH 27 0
BBX 25 22 1 0
BITMAP
FFC1FF80
1F007E00
1E003C00
1E003C00
1E003C00
1E003C00
1E003C00
1E003C00
1E003C00
1E003C00
1FFFFC00
1E003C00
1E003C00
1E003C00
1E003C00
1E003C00
1E003C00
1E003C00
1E003C00
1E003C00
3F007E00
FFC1FF80
ENDCHAR
STARTCHAR 0049
ENCODING 73
SWIDTH 352 0
DWIDTH 12 0
BBX 11 22 0 0
BITMAP
7FE0
1F00
0F00
0F00
0F00
0F00
0F00
0F00
0F00
0F00
0F00
0F00
0F00
0F00
0F00
0F00
1F00
1F00
1F00
1F00
3F00
FFE0
ENDCHAR
STARTCHAR 004A
ENCODING 74
SWIDTH 352 0
DWIDTH 12 0
BBX 14 29 -2 -7
BITMAP
0FFC
03F0
01E0
01E0
01E0
01E0
01E0
01E0
01E0
01E0
01E0
01E0
01E0
01E0
01E0
01E0
01E0
01E0
01E0
01E0
01E0
01E0
01C0
01C0
01C0
0380
6300
FE00
7800
ENDCHAR
STARTCHAR 004B
ENCODING 75
SWIDTH 676 0
DWIDTH 23 0
BBX 22 22 1 0
BITMAP
FBCEF8
1F01F0
1F01E0
1F0380
1F0300
1E0600
1E0C00
1E1800
1E2000
1E6000
1EF000
1FF800
1E3C00
1E3E00
1E1F00
1E0F00
1E0780
1E03C0
1E03E0
1E01F0
3F01F8
FFC7FC
ENDCHAR
STARTCHAR 004C
ENCODING 76
SWIDTH 558 0
DWIDTH 19 0
BBX 18 22 1 0
BITMAP
C38000
FF0000
3E0000
1E0000
1E0000
1E0000
1E0000
1E0000
1E0000
1E0000
1E0000
1E0000
1E0000
1E0000
1E0000
1E0000
1E0040
1E00C0
1E00C0
1E0080
3E0380
FFFF80
ENDCHAR
STARTCHAR 004D
ENCODING 77
SWIDTH 911 0
DWIDTH 31 0
BBX 30 22 0 0
BITMAP
7F0000FC
0F0000F0
0F8001E0
0F8001E0
0FC003E0
0DC003E0
0DE007E0
0CE005E0
0CF00DE0
0CF009E0
0C7819E0
0C7811E0
0C3C31E0
0C3C21E0
0C1E61E0
0C1E41E0
0C0FC1E0
0C0F81E0
0C0781F0
0C0781F0
1E0701F0
FFC20FFC
ENDCHAR
STARTCHAR 004E
ENCODING 78
SWIDTH 764 0
DWIDTH 26 0
BBX 26 22 0 0
BITMAP
7E00FFC0
1F001F00
0F000E00
0F800E00
0FC00E00
0DE00E00
0CF00E00
0C780E00
0C7C0E00
0C3E0E00
0C1F0E00
0C0F0C00
0C078C00
0C03CC00
0C01EC00
0C00FC00
0C007C00
0C003C00
0C001E00
0E000E00
1E000E00
FFC00600
ENDCHAR
STARTCHAR 004F
ENCODING 79
SWIDTH 794 0
DWIDTH 27 0
BBX 24 22 2 0
BITMAP
00FF00
0303C0
0E00F0
1C0078
38003C
70003C
70001E
F0001E
F0001E
F0001F
F0000F
F0000F
F0000F
F0000E
F0001E
F8001E
78001C
3C0038
3C0038
1F0060
0781C0
01FE00
ENDCHAR
STARTCHAR 0050
ENCODING 80
SWIDTH 558 0
DWIDTH 19 0
BBX 18 22 1 0
BITMAP
FFF800
3E1E00
1E0700
1E0780
1E03C0
1E03C0
1E03C0
1E03C0
1E03C0
1E0380
1E0780
1E0F00
1F1E00
1FF800
1E0000
1E0000
1E0000
1E0000
1E0000
3E0000
3F0000
FFC000
ENDCHAR
STARTCHAR 0051
ENCODING 81
SWIDTH 794 0
DWIDTH 27 0
BBX 26 29 2 -7
BITMAP
00FF0000
0303C000
0E00F000
1C007800
38003C00
70003C00
70001E00
F0001E00
F0001E00
F0001F00
F0000F00
F0000F00
F0000F00
F0000E00
F0001E00
F8001E00
78001E00
7C003C00
3E003800
1F007000
0FC3E000
03FFC000
003E0000
000F0000
00078000
0003C000
0001E000
0000F840
00001F80
ENDCHAR
STARTCHAR 0052
ENCODING 82
SWIDTH 676 0
DWIDTH 23 0
BBX 23 22 1 0
BITMAP
FFFC00
1E0F00
1E0780
1E03C0
1E03C0
1E03C0
1E03C0
1E03C0
1E03C0
1E0380
1E0700
1E0C00
1FFC00
1E1C00
1E1E00
1E0E00
1E0F00
1E0780
1E03C0
1E01E0
3F00F0
FFC03E
ENDCHAR
STARTCHAR 0053
ENCODING 83
SWIDTH 558 0
DWIDTH 19 0
BBX 16 22 1 0
BITMAP
03FE
0E1E
1C06
3C06
3802
7C02
7C00
3E00
3F80
1FE0
0FF8
07FC
00FE
003F
001F
C00F
C00F
C00F
600F
700E
783C
7FF0
ENDCHAR
STARTCHAR 0054
ENCODING 84
SWIDTH 647 0
DWIDTH 22 0
BBX 22 22 0 0
BITMAP
7F007C
7FFFFC
78783C
C07808
C07808
807808
007800
007800
007800
007800
007800
007800
007800
007800
007800
007800
007800
007800
007800
007800
00FC00
07FF80
ENDCHAR
STARTCHAR 0055
ENCODING 85
SWIDTH 735 0
DWIDTH 25 0
BBX 24 22 1 0
BITMAP
FFC0FF
7F003C
3E0038
3E0038
3E0038
3E0018
3E0018
3E0018
3E0018
3E0018
3E0018
3E0018
3E0018
1E0038
1E0038
1E0030
1E0030
1E0030
1F0060
0F81C0
07FF80
00FE00
ENDCHAR
STARTCHAR 0056
ENCODING 86
SWIDTH 647 0
DWIDTH 22 0
BBX 22 22 0 0
BITMAP
FF83FC
7E0078
3C0030
1E0030
1E0070
1E0060
0E0060
0F00C0
0700C0
070180
078180
038300
038300
03C600
01C600
01CC00
00EC00
00F800
00F800
007800
007000
007000
ENDCHAR
STARTCHAR 0057
ENCODING 87
SWIDTH 941 0
DWIDTH 32 0
BBX 32 22 1 0
BITMAP
C7701E43
7C3FFC3C
781E181C
3C0E1018
3C0E3010
1C0F2030
1E076020
0E07C060
0F03C040
0F038040
0703C080
0781C080
0383E100
03C3E100
03C4E300
01C4F200
01E8F600
01E87400
00F07C00
00F03800
00E03800
00603800
ENDCHAR
STARTCHAR 0058
ENCODING 88
SWIDTH 676 0
DWIDTH 23 0
BBX 22 22 0 0
BITMAP
7FC3FC
1F8078
0F8070
078060
07C0C0
03C180
01E100
01F300
00F600
007C00
003C00
003E00
007E00
00CF00
01CF80
038780
0303C0
0603E0
0E01E0
1C01F0
3E01F8
FF07FC
ENDCHAR
STARTCHAR 0059
ENCODING 89
SWIDTH 617 0
DWIDTH 21 0
BBX 21 22 0 0
BITMAP
FF03F8
7C00F0
3C00E0
3E00C0
1E0180
0E0180
0F0300
078700
038600
03CC00
01DC00
00F800
00F800
007800
007800
007800
007800
007800
007800
007800
00FC00
03FF00
ENDCHAR
STARTCHAR 005A
ENCODING 90
SWIDTH 617 0
DWIDTH 21 0
BBX 20 22 1 0
BITMAP
3FBFE0
3FFFE0
3803C0
600780
600F00
400E00
001C00
003C00
007800
007000
00E000
01E000
03C000
038000
070000
0F0000
1E0030
1C0060
3C0060
7801E0
FFFFE0
FFFFC0
ENDCHAR
STARTCHAR 005B
ENCODING 91
SWIDTH 323 0
DWIDTH 11 0
BBX 8 32 3 -8
BITMAP
FF
F0
F0
F0
F0
F0
F0
F0
F0
F0
F0
F0
F0
F0
F0
F0
F0
F0
F0
F0
F0
F0
F0
F0
F0
F0
F0
F0
F0
F0
F0
FF
ENDCHAR
STARTCHAR 005C
ENCODING 92
SWIDTH 411 0
DWIDTH 14 0
BBX 13 32 1 -8
BITMAP
C000
C000
C000
6000
6000
2000
3000
3000
1000
1800
1800
0C00
0C00
0C00
0600
0600
0200
0300
0300
0100
0180
0180
00C0
00C0
00C0
0060
0060
0060
0030
0030
0030
0018
ENDCHAR
STARTCHAR 005D
ENCODING 93
SWIDTH 352 0
DWIDTH 12 0
BBX 8 32 1 -8
BITMAP
FF
0F
0F
0F
0F
0F
0F
0F
0F
0F
0F
0F
0F
0F
0F
0F
0F
0F
0F
0F
0F
0F
0F
0F
0F
0F
0F
0F
0F
0F
0F
FF
ENDCHAR
STARTCHAR 005E
ENCODING 94
SWIDTH 470 0
DWIDTH 16 0
BBX 18 14 -1 9
BITMAP
004000
00C000
00E000
01F000
03D000
038800
078800
0F0400
0E0200
1E0200
3C0100
380180
780080
F00040
ENDCHAR
STARTCHAR 005F
ENCODING 95
SWIDTH 470 0
DWIDTH 16 0
BBX 16 2 0 -6
BITMAP
FFFF
FFFF
ENDCHAR
STARTCHAR 0060
ENCODING 96
SWIDTH 500 0
DWIDTH 17 0
BBX 7 5 4 17
BITMAP
E0
70
38
0C
06
ENDCHAR
STARTCHAR 0061
ENCODING 97
SWIDTH 470 0
DWIDTH 16 0
BBX 16 15 1 0
BITMAP
03E0
0FF0
1CF0
38F0
78F0
00F0
00F0
03F0
3CF0
78F0
F0F0
F0F0
F8F1
7FFF
3E78
ENDCHAR
STARTCHAR 0062
ENCODING 98
SWIDTH 588 0
DWIDTH 20 0
BBX 17 24 1 0
BITMAP
0C0000
FC0000
7C0000
3C0000
3C0000
3C0000
3C0000
3C0000
3C0000
3C7C00
3F9E00
3C0F00
3C0F00
3C0780
3C0780
3C0780
3C0780
3C0780
3C0780
3C0700
3C0E00
3C0E00
3E1800
3FE000
ENDCHAR
STARTCHAR 0063
ENCODING 99
SWIDTH 441 0
DWIDTH 15 0
BBX 13 15 1 0
BITMAP
03E0
0FF8
1C78
3830
7800
7000
7000
F000
F000
F800
7800
7C00
7E18
3FF0
0F80
ENDCHAR
STARTCHAR 0064
ENCODING 100
SWIDTH 558 0
DWIDTH 19 0
BBX 17 24 1 0
BITMAP
000300
000F00
003E00
001E00
001E00
001E00
001E00
001E00
001E00
03FE00
0C3E00
181E00
381E00
781E00
701E00
701E00
F01E00
F01E00
F81E00
781E00
781E00
3C1E00
3E1F00
0FFF80
ENDCHAR
STARTCHAR 0065
ENCODING 101
SWIDTH 441 0
DWIDTH 15 0
BBX 13 15 1 0
BITMAP
07C0
18E0
3870
3078
7078
70F8
77C0
F800
F000
F000
7000
7800
7C18
3FF0
0FC0
ENDCHAR
STARTCHAR 0066
ENCODING 102
SWIDTH 352 0
DWIDTH 12 0
BBX 15 24 1 0
BITMAP
00FC
03FE
0E1E
0E04
1C00
3C00
3C00
3C00
3C00
FFC0
3C00
3C00
3C00
3C00
3C00
3C00
3C00
3C00
3C00
3C00
3C00
3C00
7E00
FF80
ENDCHAR
STARTCHAR 0067
ENCODING 103
SWIDTH 529 0
DWIDTH 18 0
BBX 16 24 1 -9
BITMAP
07CF
1CFF
3878
383C
783C
783C
783C
7C38
3C38
3E60
0F80
0C00
3800
3F80
3FFC
0FFF
0DFF
380F
F007
E007
E006
F00C
7830
1FC0
ENDCHAR
STARTCHAR 0068
ENCODING 104
SWIDTH 588 0
DWIDTH 20 0
BBX 18 24 1 0
BITMAP
1C0000
FC0000
7C0000
3C0000
3C0000
3C0000
3C0000
3C0000
3C0000
3C3C00
3CFE00
3F1F00
3C0F00
3C0F00
3C0F00
3C0F00
3C0F00
3C0F00
3C0F00
3C0F00
3C0F00
3C0F00
7C0F00
FF3FC0
ENDCHAR
STARTCHAR 0069
ENCODING 105
SWIDTH 294 0
DWIDTH 10 0
BBX 9 23 1 0
BITMAP
0C00
1E00
1E00
0C00
0000
0000
0000
0000
0C00
7C00
FE00
3E00
1E00
1E00
1E00
1E00
1E00
1E00
1E00
1E00
3E00
3E00
FF80
ENDCHAR
STARTCHAR 006A
ENCODING 106
SWIDTH 294 0
DWIDTH 10 0
BBX 8 32 0 -9
BITMAP
06
0F
0F
06
00
00
00
00
01
0F
3F
1F
0F
0F
0F
0F
0F
0F
0F
0F
0F
0F
0F
0F
0F
0F
0F
0E
0E
CC
F8
F0
ENDCHAR
STARTCHAR 006B
ENCODING 107
SWIDTH 558 0
DWIDTH 19 0
BBX 18 24 1 0
BITMAP
1C0000
FC0000
7C0000
3C0000
3C0000
3C0000
3C0000
3C0000
3C0000
3C7F80
3C1E00
3C1C00
3C3000
3C6000
3C8000
3DC000
3FE000
3DF000
3CF800
3C7C00
3C3E00
3C1F00
7C0F80
FF1FC0
ENDCHAR
STARTCHAR 006C
ENCODING 108
SWIDTH 294 0
DWIDTH 10 0
BBX 9 24 1 0
BITMAP
0C00
7C00
7C00
1E00
1E00
1E00
1E00
1E00
1E00
1E00
1E00
1E00
1E00
1E00
1E00
1E00
1E00
1E00
1E00
1E00
1E00
1E00
3E00
FF80
ENDCHAR
STARTCHAR 006D
ENCODING 109
SWIDTH 882 0
DWIDTH 30 0
BBX 28 15 1 0
BITMAP
0C781E00
3DFC7F00
FE1F8F80
7C0F0780
3C0F0780
3C0F0780
3C0F0780
3C0F0780
3C0F0780
3C0F0780
3C0F0780
3C0F0780
3C0F0780
3E0F87C0
FF3FCFF0
ENDCHAR
STARTCHAR 006E
ENCODING 110
SWIDTH 588 0
DWIDTH 20 0
BBX 19 15 1 0
BITMAP
0C3C00
7CFE00
FF1F00
3C0F00
3C0F00
3C0F00
3C0F00
3C0F00
3C0F00
3C0F00
3C0F00
3C0F00
3C0F00
7C0F80
FF1FE0
ENDCHAR
STARTCHAR 006F
ENCODING 111
SWIDTH 558 0
DWIDTH 19 0
BBX 16 15 1 0
BITMAP
03F0
0C7C
381E
381E
780F
700F
F00F
F00F
F80F
780F
780F
780E
3C1C
1E18
07E0
ENDCHAR
STARTCHAR 0070
ENCODING 112
SWIDTH 558 0
DWIDTH 19 0
BBX 17 24 1 -9
BITMAP
0C7800
1FBE00
7C1F00
7C0F00
3C0F80
3C0780
3C0780
3C0780
3C0780
3C0780
3C0700
3C0F00
3C0E00
3E1C00
3FF000
3C0000
3C0000
3C0000
3C0000
3C0000
3C0000
3C0000
7C0000
FF8000
ENDCHAR
STARTCHAR 0071
ENCODING 113
SWIDTH 558 0
DWIDTH 19 0
BBX 17 24 1 -10
BITMAP
03F200
0C3E00
181E00
381E00
781E00
781E00
701E00
F01E00
F01E00
F81E00
781E00
781E00
7C1E00
3E1E00
0FFE00
001E00
001E00
001E00
001E00
001E00
001E00
001E00
001F00
007F80
ENDCHAR
STARTCHAR 0072
ENCODING 114
SWIDTH 382 0
DWIDTH 13 0
BBX 12 15 1 0
BITMAP
0C30
1CF0
7DF0
3F30
3C20
3C00
3C00
3C00
3C00
3C00
3C00
3C00
3C00
7E00
FF80
ENDCHAR
STARTCHAR 0073
ENCODING 115
SWIDTH 411 0
DWIDTH 14 0
BBX 11 15 1 0
BITMAP
1FC0
31C0
70E0
7060
F000
7C00
7F00
3FC0
0FE0
03E0
01E0
C1E0
C1E0
E1C0
7F00
ENDCHAR
STARTCHAR 0074
ENCODING 116
SWIDTH 352 0
DWIDTH 12 0
BBX 11 17 1 0
BITMAP
0C00
3C00
FFE0
3FE0
3C00
3C00
3C00
3C00
3C00
3C00
3C00
3C00
3C00
3C00
3E20
1FE0
0F00
ENDCHAR
STARTCHAR 0075
ENCODING 117
SWIDTH 588 0
DWIDTH 20 0
BBX 18 15 2 0
BITMAP
380E00
F87E00
781E00
781E00
781E00
781E00
781E00
781E00
781E00
781E00
781E00
781E00
7C3E00
3FEFC0
1F0E00
ENDCHAR
STARTCHAR 0076
ENCODING 118
SWIDTH 470 0
DWIDTH 16 0
BBX 16 15 0 0
BITMAP
FE3F
780E
780C
3C0C
3C08
1C18
1E10
0E30
0E20
0F20
0740
07C0
0380
0380
0380
ENDCHAR
STARTCHAR 0077
ENCODING 119
SWIDTH 705 0
DWIDTH 24 0
BBX 24 15 0 0
BITMAP
FE7F3F
7C3E06
3C1C06
3C1E0C
1C1E0C
1E1E08
1E1F18
0E3710
0F2730
0727A0
0743A0
07C3C0
03C3C0
0381C0
038180
ENDCHAR
STARTCHAR 0078
ENCODING 120
SWIDTH 470 0
DWIDTH 16 0
BBX 16 15 0 0
BITMAP
7F23
3E1E
1E0C
1E18
0F30
07E0
07C0
03C0
03E0
06F0
0CF0
1878
383C
703E
FCFF
ENDCHAR
STARTCHAR 0079
ENCODING 121
SWIDTH 441 0
DWIDTH 15 0
BBX 16 24 0 -9
BITMAP
FE3F
780E
780C
380C
3C18
1C18
1C10
1E20
0E20
0E40
0740
0780
0780
0300
0300
0200
0200
0400
0C00
0C00
1800
3800
7000
E000
ENDCHAR
STARTCHAR 007A
ENCODING 122
SWIDTH 441 0
DWIDTH 15 0
BBX 14 15 1 0
BITMAP
7FF8
7FF8
6070
40E0
C1E0
01C0
0380
0700
0F00
1E00
1C04
3C08
7818
F078
FFF0
ENDCHAR
STARTCHAR 007B
ENCODING 123
SWIDTH 323 0
DWIDTH 11 0
BBX 11 32 0 -8
BITMAP
03E0
0700
0F00
0E00
1E00
1E00
1E00
1E00
1E00
1E00
1E00
1E00
1E00
1E00
1E00
3C00
FC00
3E00
1E00
1E00
1E00
1E00
1E00
1E00
1E00
1E00
1E00
1E00
0F00
0F00
0700
03E0
ENDCHAR
STARTCHAR 007C
ENCODING 124
SWIDTH 470 0
DWIDTH 16 0
BBX 2 27 7 -5
BITMAP
C0
C0
C0
C0
C0
C0
C0
C0
C0
C0
C0
C0
C0
C0
C0
C0
C0
C0
C0
C0
C0
C0
C0
C0
C0
C0
C0
ENDCHAR
STARTCHAR 007D
ENCODING 125
SWIDTH 323 0
DWIDTH 11 0
BBX 10 32 0 -8
BITMAP
7800
1C00
1E00
1E00
1E00
1E00
1E00
1E00
1E00
1E00
1E00
1E00
0E00
0F00
0F00
0700
07C0
0F80
0F00
0F00
1E00
1E00
1E00
1E00
1E00
1E00
1E00
1E00
1E00
1E00
1C00
F800
ENDCHAR
STARTCHAR 007E
ENCODING 126
SWIDTH 647 0
DWIDTH 22 0
BBX 13 4 4 20
BITMAP
0008
1E18
7FF0
C3E0
ENDCHAR
STARTCHAR 00A0
ENCODING 160
SWIDTH 235 0
DWIDTH 8 0
BBX 0 0 0 0
BITMAP
ENDCHAR
STARTCHAR 00A1
ENCODING 161
SWIDTH 352 0
DWIDTH 12 0
BBX 4 23 4 -8
BITMAP
70
70
70
70
00
00
00
60
60
60
60
60
60
60
60
E0
E0
E0
E0
E0
F0
F0
E0
ENDCHAR
STARTCHAR 00A2
ENCODING 162
SWIDTH 529 0
DWIDTH 18 0
BBX 13 22 3 0
BITMAP
0100
0100
0100
0100
0FE0
1FF8
3978
7130
F100
F100
F100
F100
F100
F100
F900
7D10
7FF0
1FC0
0300
0100
0100
0100
ENDCHAR
STARTCHAR 00A3
ENCODING 163
SWIDTH 529 0
DWIDTH 18 0
BBX 16 22 1 0
BITMAP
00F8
03FC
071C
0E0E
1E0C
1C00
1C00
3E00
3E00
1E00
1E00
1F00
FFE0
0E00
0F00
0700
0600
0607
0F03
3FE3
7FFE
71FC
ENDCHAR
STARTCHAR 00A4
ENCODING 164
SWIDTH 529 0
DWIDTH 18 0
BBX 13 14 2 4
BITMAP
8008
C008
6FD0
3FE0
3C70
7878
7038
7038
7038
3830
3870
7FF0
EF98
C008
ENDCHAR
STARTCHAR 00A5
ENCODING 165
SWIDTH 529 0
DWIDTH 18 0
BBX 18 22 0 0
BITMAP
FF1FC0
7C0780
3C0700
3C0600
1E0400
1E0C00
0E0800
0F1800
3F1F00
03B000
03A000
03E000
01E000
3FFF00
01C000
01C000
01C000
01C000
01C000
01C000
03E000
0FFC00
ENDCHAR
STARTCHAR 00A6
ENCODING 166
SWIDTH 470 0
DWIDTH 16 0
BBX 2 27 7 -5
BITMAP
C0
C0
C0
C0
C0
C0
C0
C0
C0
C0
C0
00
00
00
00
00
00
C0
C0
C0
C0
C0
C0
C0
C0
C0
C0
ENDCHAR
STARTCHAR 00A7
ENCODING 167
SWIDTH 529 0
DWIDTH 18 0
BBX 13 31 2 -9
BITMAP
03E0
0FF8
1FF8
3830
3000
2000
7000
7000
3800
3E00
1F80
37C0
73F0
60F8
E078
F038
7818
7E18
3F18
1FF0
07C0
03E0
00F0
0070
0070
0070
0070
70E0
7FC0
7F80
3E00
ENDCHAR
STARTCHAR 00A8
ENCODING 168
SWIDTH 500 0
DWIDTH 17 0
BBX 10 3 4 17
BITMAP
E380
F3C0
E380
ENDCHAR
STARTCHAR 00A9
ENCODING 169
SWIDTH 735 0
DWIDTH 25 0
BBX 23 22 1 0
BITMAP
007E00
0381C0
060060
0C0030
180018
303F8C
60E18C
618086
638086
638006
C70006
C70006
638006
638006
63C086
61E18E
307F0C
180018
0C0030
060060
0381C0
00FE00
ENDCHAR
STARTCHAR 00AA
ENCODING 170
SWIDTH 323 0
DWIDTH 11 0
BBX 10 9 1 8
BITMAP
3E00
C300
8300
0300
3F00
E300
E300
FFC0
7380
ENDCHAR
STARTCHAR 00AB
ENCODING 171
SWIDTH 529 0
DWIDTH 18 0
BBX 14 13 2 1
BITMAP
0204
060C
0C18
1830
78F0
F1E0
E1C0
F1E0
3870
1830
0C18
060C
0204
ENDCHAR
STARTCHAR 00AC
ENCODING 172
SWIDTH 529 0
DWIDTH 18 0
BBX 14 9 2 0
BITMAP
FFFC
003C
003C
003C
003C
003C
003C
003C
003C
ENDCHAR
STARTCHAR 00AD
ENCODING 173
SWIDTH 294 0
DWIDTH 10 0
BBX 8 3 1 6
BITMAP
FF
FF
FF
ENDCHAR
STARTCHAR 00AE
ENCODING 174
SWIDTH 735 0
DWIDTH 25 0
BBX 23 22 1 0
BITMAP
007E00
0381C0
060060
0C0030
180018
33FE0C
61870C
618706
618706
618706
C18706
C1FE06
619E06
618F06
618706
61C38E
33E1CC
180018
0C0030
060060
0381C0
00FE00
ENDCHAR
STARTCHAR 00AF
ENCODING 175
SWIDTH 500 0
DWIDTH 17 0
BBX 10 2 3 18
BITMAP
FFC0
FFC0
ENDCHAR
STARTCHAR 00B0
ENCODING 176
SWIDTH 529 0
DWIDTH 18 0
BBX 9 9 4 13
BITMAP
1E00
6300
4180
C180
C180
C180
6380
7F00
3E00
ENDCHAR
STARTCHAR 00B1
ENCODING 177
SWIDTH 529 0
DWIDTH 18 0
BBX 14 18 2 0
BITMAP
0300
0300
0300
0300
0300
0300
FFFC
0300
0300
0300
0300
0300
0300
0000
0000
0000
007C
FFFC
ENDCHAR
STARTCHAR 00B2
ENCODING 178
SWIDTH 352 0
DWIDTH 12 0
BBX 10 13 1 9
BITMAP
1F00
2380
41C0
41C0
01C0
0380
0700
0600
0C00
1840
20C0
7F80
FF80
ENDCHAR
STARTCHAR 00B3
ENCODING 179
SWIDTH 352 0
DWIDTH 12 0
BBX 10 14 1 8
BITMAP
1F00
2380
4380
0380
0700
0E00
3F00
27C0
03C0
03C0
03C0
C380
E700
7E00
ENDCHAR
STARTCHAR 00B4
ENCODING 180
SWIDTH 500 0
DWIDTH 17 0
BBX 6 5 7 17
BITMAP
1C
3C
70
E0
80
ENDCHAR
STARTCHAR 00B5
ENCODING 181
SWIDTH 588 0
DWIDTH 20 0
BBX 18 24 2 -9
BITMAP
380E00
F87E00
781E00
781E00
781E00
781E00
781E00
781E00
781E00
781E00
781E00
781E00
7C3E00
7FFFC0
7F1E00
600000
700000
300000
300000
300000
780000
780000
780000
700000
ENDCHAR
STARTCHAR 00B6
ENCODING 182
SWIDTH 705 0
DWIDTH 24 0
BBX 23 31 2 -8
BITMAP
0000C0
0000C6
000086
00F08C
07FFF0
1FF080
3FE080
7FE080
7FE080
7FE080
FFE080
FFE080
FFE080
FFE080
FFE080
7FE080
7FE080
3FE080
1FE0C0
0FF0C0
07FFC0
0030C0
0000C0
0000C0
0000C0
0000C0
0000C0
001DC0
001FC0
001F80
000F00
ENDCHAR
STARTCHAR 00B7
ENCODING 183
SWIDTH 235 0
DWIDTH 8 0
BBX 4 4 2 5
BITMAP
60
F0
F0
60
ENDCHAR
STARTCHAR 00B8
ENCODING 184
SWIDTH 500 0
DWIDTH 17 0
BBX 5 7 7 -7
BITMAP
20
60
78
38
18
98
E0
ENDCHAR
STARTCHAR 00B9
ENCODING 185
SWIDTH 352 0
DWIDTH 12 0
BBX 8 13 2 9
BITMAP
0C
1C
7C
18
18
18
18
18
18
18
18
1C
FF
ENDCHAR
STARTCHAR 00BA
ENCODING 186
SWIDTH 352 0
DWIDTH 12 0
BBX 10 9 1 8
BITMAP
1E00
7380
E380
E1C0
E1C0
E1C0
E180
7380
3E00
ENDCHAR
STARTCHAR 00BB
ENCODING 187
SWIDTH 529 0
DWIDTH 18 0
BBX 15 13 1 1
BITMAP
4180
60C0
3060
3870
1C38
0E1E
0F1E
0E1C
1C38
3870
30E0
60C0
C180
ENDCHAR
STARTCHAR 00BC
ENCODING 188
SWIDTH 794 0
DWIDTH 27 0
BBX 24 22 2 0
BITMAP
0C00C0
1C00C0
780180
180180
180300
180200
180600
180400
180C00
180808
181818
1C1038
FF3078
0020F8
0060B8
004138
008238
008638
010FFF
010038
020038
020038
ENDCHAR
STARTCHAR 00BD
ENCODING 189
SWIDTH 794 0
DWIDTH 27 0
BBX 24 22 2 0
BITMAP
0800C0
380180
780180
180300
180200
180600
180400
180C00
180800
1818F8
18111C
38320E
FF200E
00200E
00401C
00401C
008038
008070
0100C1
010183
0201FE
0203FE
ENDCHAR
STARTCHAR 00BE
ENCODING 190
SWIDTH 794 0
DWIDTH 27 0
BBX 23 22 3 0
BITMAP
3C0080
CE0080
8E0100
0E0100
0E0200
180200
7E0400
078400
078800
078818
079038
879078
C72078
7C20B8
004138
004238
008638
018E38
018FFE
030038
030038
060038
ENDCHAR
STARTCHAR 00BF
ENCODING 191
SWIDTH 411 0
DWIDTH 14 0
BBX 11 23 1 -8
BITMAP
0180
03C0
03C0
0180
0000
0000
0080
0080
0080
0380
0F80
3F80
7F00
FC00
F000
E000
C000
4000
6000
30C0
1FE0
0FE0
07C0
ENDCHAR
STARTCHAR 00C0
ENCODING 192
SWIDTH 676 0
DWIDTH 23 0
BBX 23 29 0 0
BITMAP
038000
03C000
00E000
003800
000C00
000000
000000
003800
003800
003C00
007C00
007C00
00CE00
00CE00
008F00
018700
018700
030380
030380
060380
07FFC0
0C01C0
0C01E0
1C01E0
1800F0
1800F0
3800F8
7800F8
FE03FE
ENDCHAR
STARTCHAR 00C1
ENCODING 193
SWIDTH 676 0
DWIDTH 23 0
BBX 23 29 0 0
BITMAP
000380
000780
000F00
001C00
003000
000000
000000
003800
003800
003C00
007C00
007C00
00CE00
00CE00
008F00
018700
018700
030380
030380
060380
07FFC0
0C01C0
0C01E0
1C01E0
1800F0
1800F0
3800F8
7800F8
FE03FE
ENDCHAR
STARTCHAR 00C2
ENCODING 194
SWIDTH 676 0
DWIDTH 23 0
BBX 23 30 0 0
BITMAP
001000
003800
007C00
00EE00
01C300
030180
000000
000000
003800
003800
003C00
007C00
007C00
00CE00
00CE00
008F00
018700
018700
030380
030380
060380
07FFC0
0C01C0
0C01E0
1C01E0
1800F0
1800F0
3800F8
7800F8
FE03FE
ENDCHAR
STARTCHAR 00C3
ENCODING 195
SWIDTH 676 0
DWIDTH 23 0
BBX 23 28 0 1
BITMAP
00F040
01FF80
021F00
000000
000000
000000
003800
003800
003C00
007C00
007C00
00CE00
00CE00
008F00
018700
018700
030380
030380
060380
07FFC0
0C01C0
0C01E0
1C01E0
1800F0
1800F0
3800F8
7800F8
FE03FE
ENDCHAR
STARTCHAR 00C4
ENCODING 196
SWIDTH 676 0
DWIDTH 23 0
BBX 23 28 0 0
BITMAP
018300
03C780
03C780
018300
000000
000000
003800
003800
003C00
007C00
007C00
00CE00
00CE00
008F00
018700
018700
030380
030380
060380
07FFC0
0C01C0
0C01E0
1C01E0
1800F0
1800F0
3800F8
7800F8
FE03FE
ENDCHAR
STARTCHAR 00C5
ENCODING 197
SWIDTH 676 0
DWIDTH 23 0
BBX 23 30 0 0
BITMAP
003800
006C00
00C600
00C600
00C600
006C00
003800
000000
003800
003800
003C00
007C00
007C00
00CE00
00CE00
008F00
018700
018700
030380
030380
060380
07FFC0
0C01C0
0C01E0
1C01E0
1800F0
1800F0
3800F8
7800F8
FE03FE
ENDCHAR
STARTCHAR 00C6
ENCODING 198
SWIDTH 970 0
DWIDTH 33 0
BBX 32 22 0 0
BITMAP
0007F7FE
0001F806
0003F002
0002F002
0006F002
000CF000
0008F000
0018F008
0030F008
0020F018
0060FFF8
00C0F1F8
01FFF008
0180F008
0300F000
0600F000
0600F001
0C00F003
1C00F002
3800F006
7C01F80E
FF07FFFE
ENDCHAR
STARTCHAR 00C7
ENCODING 199
SWIDTH 676 0
DWIDTH 23 0
BBX 20 30 2 -8
BITMAP
00FFF0
0781F0
0E0060
1C0060
380020
780020
700020
F00000
F00000
F00000
F00000
F00000
F00000
F00000
F00000
F00000
780000
780030
3C0020
1E0060
0F81E0
07FFC0
007000
001000
003800
007800
003C00
009C00
00C800
00F000
ENDCHAR
STARTCHAR 00C8
ENCODING 200
SWIDTH 588 0
DWIDTH 20 0
BBX 18 29 1 0
BITMAP
0E0000
0F0000
038000
00C000
002000
000000
000000
600FC0
7FF180
1E0080
1E0080
1E0080
1E0000
1E0000
1E0300
1E0200
1E0200
1FFE00
1E7E00
1E0200
1E0200
1E0000
1E0000
1E0040
1E0040
1E00C0
1E01C0
1FFF80
FFFF80
ENDCHAR
STARTCHAR 00C9
ENCODING 201
SWIDTH 588 0
DWIDTH 20 0
BBX 18 29 1 0
BITMAP
000E00
001E00
003800
007000
00C000
000000
000000
600FC0
7FF180
1E0080
1E0080
1E0080
1E0000
1E0000
1E0300
1E0200
1E0200
1FFE00
1E7E00
1E0200
1E0200
1E0000
1E0000
1E0040
1E0040
1E00C0
1E01C0
1FFF80
FFFF80
ENDCHAR
STARTCHAR 00CA
ENCODING 202
SWIDTH 588 0
DWIDTH 20 0
BBX 18 30 1 0
BITMAP
004000
00E000
01F000
03B800
060C00
0C0600
000000
000000
600FC0
7FF180
1E0080
1E0080
1E0080
1E0000
1E0000
1E0300
1E0200
1E0200
1FFE00
1E7E00
1E0200
1E0200
1E0000
1E0000
1E0040
1E0040
1E00C0
1E01C0
1FFF80
FFFF80
ENDCHAR
STARTCHAR 00CB
ENCODING 203
SWIDTH 588 0
DWIDTH 20 0
BBX 18 28 1 0
BITMAP
060C00
0F1E00
0F1E00
060C00
000000
000000
600FC0
7FF180
1E0080
1E0080
1E0080
1E0000
1E0000
1E0300
1E0200
1E0200
1FFE00
1E7E00
1E0200
1E0200
1E0000
1E0000
1E0040
1E0040
1E00C0
1E01C0
1FFF80
FFFF80
ENDCHAR
STARTCHAR 00CC
ENCODING 204
SWIDTH 352 0
DWIDTH 12 0
BBX 11 29 0 0
BITMAP
7000
7800
1C00
0700
0180
0000
0000
7FE0
1F00
0F00
0F00
0F00
0F00
0F00
0F00
0F00
0F00
0F00
0F00
0F00
0F00
0F00
0F00
1F00
1F00
1F00
1F00
3F00
FFE0
ENDCHAR
STARTCHAR 00CD
ENCODING 205
SWIDTH 352 0
DWIDTH 12 0
BBX 11 29 1 0
BITMAP
01C0
03C0
0780
0E00
1800
0000
0000
7FE0
1F00
0E00
0E00
0E00
0E00
0E00
0E00
0E00
0E00
0E00
0E00
0E00
0E00
0E00
0E00
1E00
1E00
1E00
1E00
3F00
FFE0
ENDCHAR
STARTCHAR 00CE
ENCODING 206
SWIDTH 352 0
DWIDTH 12 0
BBX 12 30 -1 0
BITMAP
0300
0780
0FC0
1DE0
1060
2030
0000
0000
7FE0
0F80
0F80
0F80
0F80
0F80
0F80
0F80
0F80
0F80
0F80
0F80
0F80
0F80
0F80
0F80
0F80
0F80
0F00
0F80
1F80
FFE0
ENDCHAR
STARTCHAR 00CF
ENCODING 207
SWIDTH 352 0
DWIDTH 12 0
BBX 11 28 0 0
BITMAP
71C0
79E0
79E0
71C0
0000
0000
7FE0
1F00
0F00
0F00
0F00
0F00
0F00
0F00
0F00
0F00
0F00
0F00
0F00
0F00
0F00
0F00
1F00
1F00
1F00
1F00
3F00
FFE0
ENDCHAR
STARTCHAR 00D0
ENCODING 208
SWIDTH 764 0
DWIDTH 26 0
BBX 24 22 1 0
BITMAP
FFFF00
1F03E0
1E0070
1E003C
1E003C
1E001E
1E001E
1E000F
1E000F
1E000F
FFF80F
1F800F
1E000F
1E000F
1E000E
1E001E
1E001E
1E003C
1E0078
1E00F0
3F03C0
FFFE00
ENDCHAR
STARTCHAR 00D1
ENCODING 209
SWIDTH 764 0
DWIDTH 26 0
BBX 26 28 0 1
BITMAP
003C1000
00FFE000
0087C000
00000000
00000000
00000000
7E00FFC0
1F001F00
0F000E00
0F800E00
0FC00E00
0DE00E00
0CF00E00
0C780E00
0C7C0E00
0C3E0E00
0C1F0E00
0C0F0C00
0C078C00
0C03CC00
0C01EC00
0C00FC00
0C007C00
0C003C00
0C001E00
0E000E00
1E000E00
FFC00600
ENDCHAR
STARTCHAR 00D2
ENCODING 210
SWIDTH 794 0
DWIDTH 27 0
BBX 24 29 2 0
BITMAP
01C000
01E000
00F000
003800
000C00
000000
000000
00FF00
0303C0
0E00F0
1C0078
38003C
70003C
70001E
F0001E
F0001E
F0001F
F0000F
F0000F
F0000F
F0000E
F0001E
F8001E
78001C
3C0038
3C0038
1F0060
0781C0
01FE00
ENDCHAR
STARTCHAR 00D3
ENCODING 211
SWIDTH 794 0
DWIDTH 27 0
BBX 24 29 2 0
BITMAP
000300
000F80
001E00
003800
006000
000000
000000
00FF00
0303C0
0E00F0
1C0078
38003C
70003C
70001E
F0001E
F0001E
F0001F
F0000F
F0000F
F0000F
F0000E
F0001E
F8001E
78001C
3C0038
3C0038
1F0060
0781C0
01FE00
ENDCHAR
STARTCHAR 00D4
ENCODING 212
SWIDTH 794 0
DWIDTH 27 0
BBX 24 30 2 0
BITMAP
001800
003800
007C00
00EE00
01C300
030180
000000
000000
00FF00
0303C0
0E00F0
1C0078
38003C
70003C
70001E
F0001E
F0001E
F0001F
F0000F
F0000F
F0000F
F0000E
F0001E
F8001E
78001C
3C0038
3C0038
1F0060
0781C0
01FE00
ENDCHAR
STARTCHAR 00D5
ENCODING 213
SWIDTH 794 0
DWIDTH 27 0
BBX 24 28 2 1
BITMAP
01F0C0
03FF80
061F00
000000
000000
000000
00FF00
0303C0
0E00F0
1C0078
38003C
70003C
70001E
F0001E
F0001E
F0001F
F0000F
F0000F
F0000F
F0000E
F0001E
F8001E
78001C
3C0038
3C0038
1F0060
0781C0
01FE00
ENDCHAR
STARTCHAR 00D6
ENCODING 214
SWIDTH 794 0
DWIDTH 27 0
BBX 24 28 2 0
BITMAP
038700
03C780
03C780
038700
000000
000000
00FF00
0303C0
0E00F0
1C0078
38003C
70003C
70001E
F0001E
F0001E
F0001F
F0000F
F0000F
F0000F
F0000E
F0001E
F8001E
78001C
3C0038
3C0038
1F0060
0781C0
01FE00
ENDCHAR
STARTCHAR 00D7
ENCODING 215
SWIDTH 529 0
DWIDTH 18 0
BBX 12 13 3 4
BITMAP
8020
C070
60E0
71C0
3B80
1F00
0E00
1F00
3980
70C0
E0E0
C070
8020
ENDCHAR
STARTCHAR 00D8
ENCODING 216
SWIDTH 794 0
DWIDTH 27 0
BBX 24 25 2 -2
BITMAP
00000C
00FE1C
0707F8
0E01F0
1C00F8
3800FC
7001BC
70033E
F0021E
F0041E
F0081F
F0180F
F0100F
F0200F
F0400E
F0801E
F9801E
79001C
7E0038
3C0038
1E0060
1F81C0
31FE00
200000
600000
ENDCHAR
STARTCHAR 00D9
ENCODING 217
SWIDTH 735 0
DWIDTH 25 0
BBX 24 29 1 0
BITMAP
01C000
03E000
00F000
003800
000C00
000000
000000
FFC0FF
7F003C
3E0038
3E0038
3E0038
3E0018
3E0018
3E0018
3E0018
3E0018
3E0018
3E0018
3E0018
1E0038
1E0038
1E0030
1E0030
1E0030
1F0060
0F81C0
07FF80
00FE00
ENDCHAR
STARTCHAR 00DA
ENCODING 218
SWIDTH 735 0
DWIDTH 25 0
BBX 24 29 1 0
BITMAP
000380
000780
000F00
001C00
003000
000000
000000
FFC0FF
7F003C
3E0038
3E0038
3E0038
3E0018
3E0018
3E0018
3E0018
3E0018
3E0018
3E0018
3E0018
1E0038
1E0038
1E0030
1E0030
1E0030
1F0060
0F81C0
07FF80
00FE00
ENDCHAR
STARTCHAR 00DB
ENCODING 219
SWIDTH 735 0
DWIDTH 25 0
BBX 24 30 1 0
BITMAP
001800
003800
007C00
00EE00
01C300
030180
000000
000000
FFC0FF
7F003C
3E0038
3E0038
3E0038
3E0018
3E0018
3E0018
3E0018
3E0018
3E0018
3E0018
3E0018
1E0038
1E0038
1E0030
1E0030
1E0030
1F0060
0F81C0
07FF80
00FE00
ENDCHAR
STARTCHAR 00DC
ENCODING 220
SWIDTH 735 0
DWIDTH 25 0
BBX 24 28 1 0
BITMAP
01C380
01C380
01C380
01C380
000000
000000
FFC0FF
7F003C
3E0038
3E0038
3E0038
3E0018
3E0018
3E0018
3E0018
3E0018
3E0018
3E0018
3E0018
1E0038
1E0038
1E0030
1E0030
1E0030
1F0060
0F81C0
07FF80
00FE00
ENDCHAR
STARTCHAR 00DD
ENCODING 221
SWIDTH 617 0
DWIDTH 21 0
BBX 21 29 0 0
BITMAP
000700
000F00
001E00
003800
006000
000000
000000
FF03F8
7C00F0
3C00E0
3E00C0
1E0180
0E0180
0F0300
078700
038600
03CC00
01DC00
00F800
00F800
007800
007800
007800
007800
007800
007800
007800
00FC00
03FF00
ENDCHAR
STARTCHAR 00DE
ENCODING 222
SWIDTH 558 0
DWIDTH 19 0
BBX 18 22 1 0
BITMAP
FFC000
3E0000
1E0000
1E0000
1FF800
1E1F00
1E0780
1E0780
1E03C0
1E03C0
1E03C0
1E03C0
1E03C0
1E0780
1E0700
1E1E00
1FF800
1E0000
1E0000
3E0000
3F0000
FFC000
ENDCHAR
STARTCHAR 00DF
ENCODING 223
SWIDTH 588 0
DWIDTH 20 0
BBX 18 24 1 0
BITMAP
00FC00
03FE00
061F00
0C0F00
1C0F00
1C0F00
3C0F00
3C1E00
3C3800
3C7000
FCE000
FDE000
3DE000
3DF000
3CFC00
3CFF00
3C3F80
3C1FC0
3C07C0
3C03C0
3C03C0
3C4380
3CE380
FE7E00
ENDCHAR
STARTCHAR 00E0
ENCODING 224
SWIDTH 470 0
DWIDTH 16 0
BBX 16 22 1 0
BITMAP
3C00
1C00
0E00
0300
0180
0000
0000
03E0
0FF0
1CF0
38F0
78F0
00F0
00F0
03F0
3CF0
78F0
F0F0
F0F0
F8F1
7FFF
3E78
ENDCHAR
STARTCHAR 00E1
ENCODING 225
SWIDTH 470 0
DWIDTH 16 0
BBX 16 22 1 0
BITMAP
0070
00F0
01C0
0380
0600
0000
0000
03E0
0FF0
1CF0
38F0
78F0
00F0
00F0
03F0
3CF0
78F0
F0F0
F0F0
F8F1
7FFF
3E78
ENDCHAR
STARTCHAR 00E2
ENCODING 226
SWIDTH 470 0
DWIDTH 16 0
BBX 16 22 1 0
BITMAP
0300
0780
0780
0CC0
1860
1020
0000
03E0
0FF0
1CF0
38F0
78F0
00F0
00F0
03F0
3CF0
78F0
F0F0
F0F0
F8F1
7FFF
3E78
ENDCHAR
STARTCHAR 00E3
ENCODING 227
SWIDTH 470 0
DWIDTH 16 0
BBX 16 21 1 1
BITMAP
0F10
1FF0
21E0
2000
0000
0000
03E0
0FF0
1CF0
38F0
78F0
00F0
00F0
03F0
3CF0
78F0
F0F0
F0F0
F8F1
7FFF
3E78
ENDCHAR
STARTCHAR 00E4
ENCODING 228
SWIDTH 470 0
DWIDTH 16 0
BBX 16 20 1 0
BITMAP
1C70
3CF0
1C70
0000
0000
03E0
0FF0
1CF0
38F0
78F0
00F0
00F0
03F0
3CF0
78F0
F0F0
F0F0
F8F1
7FFF
3E78
ENDCHAR
STARTCHAR 00E5
ENCODING 229
SWIDTH 470 0
DWIDTH 16 0
BBX 16 22 1 0
BITMAP
0780
0CC0
18C0
18C0
0CC0
0780
0000
03E0
0FF0
1CF0
38F0
78F0
00F0
00F0
03F0
3CF0
78F0
F0F0
F0F0
F8F1
7FFF
3E78
ENDCHAR
STARTCHAR 00E6
ENCODING 230
SWIDTH 676 0
DWIDTH 23 0
BBX 21 15 1 0
BITMAP
07C7C0
18ECE0
307870
707078
707078
007078
00F7C0
0FF800
3C7000
787000
F07800
F07800
F07C18
78FFF0
3F0FC0
ENDCHAR
STARTCHAR 00E7
ENCODING 231
SWIDTH 441 0
DWIDTH 15 0
BBX 13 23 1 -8
BITMAP
03F0
0FF8
1C78
3810
7800
7000
7000
F000
F000
F800
7800
7C00
3E18
3FF0
0FE0
0180
0300
0380
03C0
01C0
00C0
04C0
0700
ENDCHAR
STARTCHAR 00E8
ENCODING 232
SWIDTH 441 0
DWIDTH 15 0
BBX 13 22 1 0
BITMAP
3800
3C00
1E00
0600
0300
0000
0000
07C0
18E0
3870
3078
7078
70F8
77C0
F800
F000
F000
7000
7800
7C18
3FF0
0FC0
ENDCHAR
STARTCHAR 00E9
ENCODING 233
SWIDTH 441 0
DWIDTH 15 0
BBX 13 22 1 0
BITMAP
00E0
01E0
03C0
0300
0600
0000
0000
07C0
18E0
3870
3078
7078
70F8
77C0
F800
F000
F000
7000
7800
7C18
3FF0
0FC0
ENDCHAR
STARTCHAR 00EA
ENCODING 234
SWIDTH 441 0
DWIDTH 15 0
BBX 13 22 1 0
BITMAP
0300
0780
0780
0CC0
1860
0020
0000
07C0
18E0
3870
3078
7078
70F8
77C0
F800
F000
F000
7000
7800
7C18
3FF0
0FC0
ENDCHAR
STARTCHAR 00EB
ENCODING 235
SWIDTH 441 0
DWIDTH 15 0
BBX 13 20 1 0
BITMAP
38E0
79E0
38E0
0000
0000
07C0
18E0
3870
3078
7078
70F8
77C0
F800
F000
F000
7000
7800
7C18
3FF0
0FC0
ENDCHAR
STARTCHAR 00EC
ENCODING 236
SWIDTH 294 0
DWIDTH 10 0
BBX 9 22 0 0
BITMAP
F000
7000
3800
1C00
0600
0000
0000
0600
3E00
7E00
1E00
1E00
1E00
1E00
1E00
1E00
1E00
1E00
1E00
1E00
3F00
FF80
ENDCHAR
STARTCHAR 00ED
ENCODING 237
SWIDTH 294 0
DWIDTH 10 0
BBX 9 22 1 0
BITMAP
0780
0700
0E00
1C00
3000
0000
0000
0C00
7C00
FE00
3E00
1E00
1E00
1E00
1E00
1E00
1E00
1E00
1E00
3E00
3E00
FF80
ENDCHAR
STARTCHAR 00EE
ENCODING 238
SWIDTH 294 0
DWIDTH 10 0
BBX 9 22 0 0
BITMAP
0800
1C00
3E00
3600
6300
0000
0000
0600
3E00
7E00
3E00
3C00
3C00
3C00
3C00
3C00
3C00
3C00
3E00
3E00
3E00
FF80
ENDCHAR
STARTCHAR 00EF
ENCODING 239
SWIDTH 294 0
DWIDTH 10 0
BBX 9 20 0 0
BITMAP
7380
F780
7380
0000
0000
0600
3E00
7E00
1E00
1E00
1E00
1E00
1E00
1E00
1E00
1E00
1E00
1E00
3F00
FF80
ENDCHAR
STARTCHAR 00F0
ENCODING 240
SWIDTH 558 0
DWIDTH 19 0
BBX 16 25 1 0
BITMAP
0C00
0610
0330
0140
0180
03C0
06E0
0C70
0038
003C
07DC
0C3E
381E
381F
780F
700F
F00F
F00F
F80F
780F
780F
780E
3C1C
1E18
07E0
ENDCHAR
STARTCHAR 00F1
ENCODING 241
SWIDTH 588 0
DWIDTH 20 0
BBX 19 21 1 1
BITMAP
03C600
07FC00
0C7800
080000
000000
000000
0C3C00
7CFE00
FF1F00
3C0F00
3C0F00
3C0F00
3C0F00
3C0F00
3C0F00
3C0F00
3C0F00
3C0F00
3C0F00
7C0F80
FF1FE0
ENDCHAR
STARTCHAR 00F2
ENCODING 242
SWIDTH 558 0
DWIDTH 19 0
BBX 16 22 1 0
BITMAP
0E00
0F00
0780
0180
00C0
0000
0000
03F0
0C7C
381E
381E
780F
700F
F00F
F00F
F80F
780F
780F
780E
3C1C
1E18
07E0
ENDCHAR
STARTCHAR 00F3
ENCODING 243
SWIDTH 558 0
DWIDTH 19 0
BBX 16 22 1 0
BITMAP
0038
0078
00E0
00C0
0100
0000
0000
03F0
0C7C
381E
381E
780F
700F
F00F
F00F
F80F
780F
780F
780E
3C1C
1E18
07E0
ENDCHAR
STARTCHAR 00F4
ENCODING 244
SWIDTH 558 0
DWIDTH 19 0
BBX 16 22 1 0
BITMAP
0080
01C0
03E0
0370
0610
0008
0000
03F0
0C7C
383E
381E
700F
700F
F00F
F00F
F00F
700F
780F
780E
3C1C
1E38
07E0
ENDCHAR
STARTCHAR 00F5
ENCODING 245
SWIDTH 558 0
DWIDTH 19 0
BBX 16 21 1 1
BITMAP
078C
0FF8
18F0
0000
0000
0000
03F0
0C7C
381E
381E
780F
700F
F00F
F00F
F80F
780F
780F
780E
3C1C
1E18
07E0
ENDCHAR
STARTCHAR 00F6
ENCODING 246
SWIDTH 558 0
DWIDTH 19 0
BBX 16 20 1 0
BITMAP
0E38
1E78
0E38
0000
0000
03F0
0C7C
381E
381E
780F
700F
F00F
F00F
F80F
780F
780F
780E
3C1C
1E18
07E0
ENDCHAR
STARTCHAR 00F7
ENCODING 247
SWIDTH 529 0
DWIDTH 18 0
BBX 14 13 2 4
BITMAP
0700
0700
0780
0700
0000
0000
FFFC
0000
0000
0700
0700
0780
0700
ENDCHAR
STARTCHAR 00F8
ENCODING 248
SWIDTH 558 0
DWIDTH 19 0
BBX 16 18 1 -2
BITMAP
0003
03E2
0C3C
381E
381E
783F
702F
F04F
F08F
F10F
7B0F
7A0F
7C0E
3C1C
3E38
3FE0
2000
6000
ENDCHAR
STARTCHAR 00F9
ENCODING 249
SWIDTH 588 0
DWIDTH 20 0
BBX 18 22 2 0
BITMAP
1E0000
0E0000
070000
038000
00C000
000000
000000
380E00
F87E00
781E00
781E00
781E00
781E00
781E00
781E00
781E00
781E00
781E00
781E00
7C3E00
3FEFC0
1F0E00
ENDCHAR
STARTCHAR 00FA
ENCODING 250
SWIDTH 588 0
DWIDTH 20 0
BBX 18 22 2 0
BITMAP
007800
007800
00E000
01C000
030000
000000
000000
380E00
F87E00
781E00
781E00
781E00
781E00
781E00
781E00
781E00
781E00
781E00
781E00
7C3E00
3FEFC0
1F0E00
ENDCHAR
STARTCHAR 00FB
ENCODING 251
SWIDTH 588 0
DWIDTH 20 0
BBX 18 22 2 0
BITMAP
018000
038000
03C000
066000
0C3000
001000
000000
380E00
F87E00
781E00
781E00
781E00
781E00
781E00
781E00
781E00
781E00
781E00
781E00
7C3E00
3FEFC0
1F0E00
ENDCHAR
STARTCHAR 00FC
ENCODING 252
SWIDTH 588 0
DWIDTH 20 0
BBX 18 20 2 0
BITMAP
0C3000
1E7800
0C3000
000000
000000
380E00
F87E00
781E00
781E00
781E00
781E00
781E00
781E00
781E00
781E00
781E00
781E00
7C3E00
3FEFC0
1F0E00
ENDCHAR
STARTCHAR 00FD
ENCODING 253
SWIDTH 441 0
DWIDTH 15 0
BBX 16 31 0 -9
BITMAP
0070
00F0
01E0
0180
0300
0000
0000
FE3F
780E
780C
380C
3C18
1C18
1C10
1E20
0E20
0E40
0740
0780
0780
0300
0300
0200
0200
0400
0C00
0C00
1800
3800
7000
E000
ENDCHAR
STARTCHAR 00FE
ENCODING 254
SWIDTH 558 0
DWIDTH 19 0
BBX 17 33 1 -9
BITMAP
1C0000
FC0000
7C0000
3C0000
3C0000
3C0000
3C0000
3C0000
3C0000
3C7800
3FBE00
3C1F00
3C0F00
3C0F00
3C0780
3C0780
3C0780
3C0780
3C0700
3C0700
3C0E00
3C0E00
3E1C00
3FF000
3C0000
3C0000
3C0000
3C0000
3C0000
3C0000
3C0000
7C0000
FF8000
ENDCHAR
STARTCHAR 00FF
ENCODING 255
SWIDTH 441 0
DWIDTH 15 0
BBX 16 29 0 -9
BITMAP
1C70
1E78
1C70
0000
0000
FE3F
780E
780C
380C
3C18
1C18
1C10
1E20
0E20
0E40
0740
0780
0780
0300
0300
0200
0200
0400
0C00
0C00
1800
3800
7000
E000
ENDCHAR
STARTCHAR 0131
ENCODING 305
SWIDTH 294 0
DWIDTH 10 0
BBX 9 15 1 0
BITMAP
0C00
7C00
FE00
3E00
1E00
1E00
1E00
1E00
1E00
1E00
1E00
1E00
3E00
3E00
FF80
ENDCHAR
STARTCHAR 0141
ENCODING 321
SWIDTH 558 0
DWIDTH 19 0
BBX 18 22 1 0
BITMAP
61C000
7F0000
1E0000
1E0000
1E0000
1E1000
1E3000
1E6000
1E8000
1F0000
1E0000
1E0000
7E0000
DE0000
9E0000
1E0000
1E0040
1E00C0
1E00C0
3E0180
3E0380
FFFF80
ENDCHAR
STARTCHAR 0142
ENCODING 322
SWIDTH 294 0
DWIDTH 10 0
BBX 9 24 1 0
BITMAP
1C00
FC00
7C00
3C00
3C00
1C00
1C00
1E00
1E80
1F80
1F00
1E00
3E00
5E00
5E00
1E00
1E00
1E00
1E00
1E00
1E00
3E00
3E00
FF80
ENDCHAR
STARTCHAR 0152
ENCODING 338
SWIDTH 1029 0
DWIDTH 35 0
BBX 32 22 2 0
BITMAP
00FFEFFF
0781F807
0E00F803
1C007801
38007001
78007000
70007000
F000700C
F000700C
F000700C
F0007FF8
F00073F8
F000700C
F000700C
F0007000
F0007000
78007801
7C007801
3C007803
1F00F803
07C1F80F
01FFFFFE
ENDCHAR
STARTCHAR 0153
ENCODING 339
SWIDTH 823 0
DWIDTH 28 0
BBX 26 15 1 0
BITMAP
03E07C00
0E38CF00
3C1D8780
380F8380
780F0380
700707C0
F0077C00
F0078000
F8070000
78078000
78078000
7C0FC000
3C0FE080
1E1DFF00
07E0FC00
ENDCHAR
STARTCHAR 0160
ENCODING 352
SWIDTH 558 0
DWIDTH 19 0
BBX 16 30 1 0
BITMAP
100C
0C18
0630
03E0
01C0
01C0
0000
0000
03FE
0E1E
1C06
3C06
3802
7C02
7C00
3E00
3F80
1FE0
0FF8
07FC
00FE
003F
001F
C00F
C00F
C00F
600F
700E
783C
7FF0
ENDCHAR
STARTCHAR 0161
ENCODING 353
SWIDTH 411 0
DWIDTH 14 0
BBX 11 23 1 0
BITMAP
2040
30C0
1980
0F00
0F00
0600
0000
0000
1FC0
31C0
70E0
7060
F000
7C00
7F00
3FC0
0FE0
03E0
01E0
C1E0
C1E0
E1C0
7F00
ENDCHAR
STARTCHAR 0178
ENCODING 376
SWIDTH 617 0
DWIDTH 21 0
BBX 21 28 0 0
BITMAP
030600
078F00
078F00
030600
000000
000000
FF03F8
7C00F0
3C00E0
3E00C0
1E0180
0E0180
0F0300
078700
038600
03CC00
01DC00
00F800
00F800
007800
007800
007800
007800
007800
007800
007800
00FC00
03FF00
ENDCHAR
STARTCHAR 017D
ENCODING 381
SWIDTH 617 0
DWIDTH 21 0
BBX 20 30 1 0
BITMAP
040300
030600
018C00
00F800
007000
007000
000000
000000
3FBFE0
3FFFE0
3F81C0
700380
600780
600F00
000E00
001C00
003C00
003800
007000
00E000
01E000
01C000
038000
078000
0F0030
0E0020
1E0060
3C00E0
7BFFE0
FFFFC0
ENDCHAR
STARTCHAR 017E
ENCODING 382
SWIDTH 441 0
DWIDTH 15 0
BBX 14 23 1 0
BITMAP
1030
0860
0CC0
07C0
0380
0300
0000
0000
7FF8
7FF8
6070
40E0
C1E0
01C0
0380
0700
0F00
1E00
1C04
3C08
7818
F078
FFF0
ENDCHAR
STARTCHAR 0192
ENCODING 402
SWIDTH 529 0
DWIDTH 18 0
BBX 20 28 -1 -6
BITMAP
0003C0
000CE0
001870
003060
003000
007000
007000
00E000
00E000
00E000
01FC00
03E000
01E000
01E000
01E000
01C000
03C000
03C000
03C000
03C000
038000
038000
078000
070000
070000
460000
EC0000
780000
ENDCHAR
STARTCHAR 02C6
ENCODING 710
SWIDTH 500 0
DWIDTH 17 0
BBX 9 6 4 16
BITMAP
0800
1C00
3E00
3600
6300
8080
ENDCHAR
STARTCHAR 02C7
ENCODING 711
SWIDTH 500 0
DWIDTH 17 0
BBX 9 6 4 17
BITMAP
8080
4300
3600
3E00
1C00
0800
ENDCHAR
STARTCHAR 02C9
ENCODING 713
SWIDTH 500 0
DWIDTH 17 0
BBX 10 2 3 18
BITMAP
FFC0
FFC0
ENDCHAR
STARTCHAR 02D8
ENCODING 728
SWIDTH 500 0
DWIDTH 17 0
BBX 9 5 4 17
BITMAP
8080
C180
6380
7F00
1E00
ENDCHAR
STARTCHAR 02D9
ENCODING 729
SWIDTH 500 0
DWIDTH 17 0
BBX 4 4 7 17
BITMAP
E0
E0
F0
E0
ENDCHAR
STARTCHAR 02DA
ENCODING 730
SWIDTH 500 0
DWIDTH 17 0
BBX 7 6 5 16
BITMAP
3C
E6
C6
C6
E6
3C
ENDCHAR
STARTCHAR 02DB
ENCODING 731
SWIDTH 500 0
DWIDTH 17 0
BBX 5 6 7 -6
BITMAP
10
60
40
C0
E0
78
ENDCHAR
STARTCHAR 02DC
ENCODING 732
SWIDTH 500 0
DWIDTH 17 0
BBX 11 4 3 18
BITMAP
3820
7E40
CFC0
0380
ENDCHAR
STARTCHAR 02DD
ENCODING 733
SWIDTH 500 0
DWIDTH 17 0
BBX 10 5 5 17
BITMAP
1DC0
39C0
3300
6600
C400
ENDCHAR
STARTCHAR 0394
ENCODING 916
SWIDTH 617 0
DWIDTH 21 0
BBX 19 23 1 0
BITMAP
004000
00C000
00E000
00E000
01F000
017000
037000
023800
023800
043C00
041C00
0C1E00
080E00
080E00
100700
100700
200780
200380
200380
4001C0
4001C0
8001E0
FFFFE0
ENDCHAR
STARTCHAR 03A9
ENCODING 937
SWIDTH 764 0
DWIDTH 26 0
BBX 23 23 2 0
BITMAP
01FE00
0F03C0
1E00F0
3C0078
780038
F0003C
F0003C
F0001E
F0001E
F0001E
F0001E
F0003C
F0003C
70003C
780078
3C00F0
0E01C0
C38704
C08404
C0840C
FF87FC
7F87FC
7F87FC
ENDCHAR
STARTCHAR 03BC
ENCODING 956
SWIDTH 588 0
DWIDTH 20 0
BBX 18 24 2 -9
BITMAP
380E00
F87E00
781E00
781E00
781E00
781E00
781E00
781E00
781E00
781E00
781E00
781E00
7C3E00
7FFFC0
7F1E00
600000
700000
300000
300000
300000
780000
780000
780000
700000
ENDCHAR
STARTCHAR 03C0
ENCODING 960
SWIDTH 558 0
DWIDTH 19 0
BBX 17 16 1 0
BITMAP
000180
3FFF00
FFFF00
883800
887800
087800
087800
087800
087800
087800
087800
187880
987880
F87900
F07900
603E00
ENDCHAR
STARTCHAR 2010
ENCODING 8208
SWIDTH 294 0
DWIDTH 10 0
BBX 8 3 1 6
BITMAP
FF
FF
FF
ENDCHAR
STARTCHAR 2013
ENCODING 8211
SWIDTH 470 0
DWIDTH 16 0
BBX 14 2 1 7
BITMAP
FFFC
FFFC
ENDCHAR
STARTCHAR 2014
ENCODING 8212
SWIDTH 764 0
DWIDTH 26 0
BBX 23 2 1 7
BITMAP
FFFFFE
FFFFFE
ENDCHAR
STARTCHAR 2018
ENCODING 8216
SWIDTH 235 0
DWIDTH 8 0
BBX 6 10 1 13
BITMAP
0C
30
60
60
C0
C0
E0
F0
70
30
ENDCHAR
STARTCHAR 2019
ENCODING 8217
SWIDTH 235 0
DWIDTH 8 0
BBX 6 10 1 13
BITMAP
30
38
38
1C
0C
0C
18
18
30
C0
ENDCHAR
STARTCHAR 201A
ENCODING 8218
SWIDTH 235 0
DWIDTH 8 0
BBX 6 10 1 -6
BITMAP
30
38
38
1C
0C
0C
18
18
70
C0
ENDCHAR
STARTCHAR 201C
ENCODING 8220
SWIDTH 441 0
DWIDTH 15 0
BBX 13 10 1 13
BITMAP
0C18
3060
60C0
60C0
C180
C180
E1C0
F1E0
70E0
3060
ENDCHAR
STARTCHAR 201D
ENCODING 8221
SWIDTH 441 0
DWIDTH 15 0
BBX 13 10 1 13
BITMAP
3060
3870
3870
1C38
0C18
0C18
1830
1830
3060
C180
ENDCHAR
STARTCHAR 201E
ENCODING 8222
SWIDTH 441 0
DWIDTH 15 0
BBX 13 10 1 -6
BITMAP
3060
3870
3870
1C38
0C18
0C18
1830
1830
7060
C180
ENDCHAR
STARTCHAR 2020
ENCODING 8224
SWIDTH 529 0
DWIDTH 18 0
BBX 14 31 2 -9
BITMAP
0300
0780
0780
0300
0300
0300
0300
0200
6218
FFFC
FEFC
6218
0300
0300
0300
0780
0780
0780
0300
0300
0300
0300
0200
0200
0200
0200
0200
0200
0200
0200
0200
ENDCHAR
STARTCHAR 2021
ENCODING 8225
SWIDTH 529 0
DWIDTH 18 0
BBX 14 31 2 -9
BITMAP
0300
0780
0780
0700
0300
0300
0200
4218
F23C
FFFC
6238
0200
0300
0300
0700
0780
0700
0300
0200
4218
FFFC
FFFC
4218
0200
0200
0300
0300
0700
0780
0780
0300
ENDCHAR
STARTCHAR 2022
ENCODING 8226
SWIDTH 647 0
DWIDTH 22 0
BBX 9 9 6 6
BITMAP
1E00
7F00
7F80
FF80
FF80
FF80
7F80
7F00
1E00
ENDCHAR
STARTCHAR 2026
ENCODING 8230
SWIDTH 735 0
DWIDTH 25 0
BBX 21 4 2 0
BITMAP
606030
F0F078
F0F078
606030
ENDCHAR
STARTCHAR 2030
ENCODING 8240
SWIDTH 1029 0
DWIDTH 35 0
BBX 33 22 1 0
BITMAP
1E00800000
3381000000
6381000000
E1C2000000
E1C2000000
E1C4000000
E1C4000000
E1C8000000
F188000000
7310000000
3E30000000
0021E03C00
004738E700
004638C700
008E1DC380
008E1DC380
010E1DC380
010E1DC380
020E1DC380
040718E300
040730E600
0803E07C00
ENDCHAR
STARTCHAR 2039
ENCODING 8249
SWIDTH 294 0
DWIDTH 10 0
BBX 8 13 1 1
BITMAP
03
06
0E
1C
38
78
F0
78
38
1C
0E
02
01
ENDCHAR
STARTCHAR 203A
ENCODING 8250
SWIDTH 294 0
DWIDTH 10 0
BBX 8 13 1 1
BITMAP
C0
60
70
38
1C
1E
0F
0E
1C
38
70
60
C0
ENDCHAR
STARTCHAR 2044
ENCODING 8260
SWIDTH 88 0
DWIDTH 3 0
BBX 13 22 -5 0
BITMAP
0018
0030
0030
0060
0040
00C0
0080
0180
0100
0300
0200
0600
0400
0C00
0800
1800
1000
3000
2000
6000
4000
C000
ENDCHAR
STARTCHAR 2122
ENCODING 8482
SWIDTH 852 0
DWIDTH 29 0
BBX 26 11 1 11
BITMAP
FFEF03C0
8C670380
8C470780
0C078780
0C058580
0C04CD80
0C04C980
0C04F980
0C047180
0C047180
3F1F27C0
ENDCHAR
STARTCHAR 2126
ENCODING 8486
SWIDTH 764 0
DWIDTH 26 0
BBX 23 23 2 0
BITMAP
01FE00
0F03C0
1E00F0
3C0078
780038
F0003C
F0003C
F0001E
F0001E
F0001E
F0001E
F0003C
F0003C
70003C
780078
3C00F0
0E01C0
C38704
C08404
C0840C
FF87FC
7F87FC
7F87FC
ENDCHAR
STARTCHAR 2202
ENCODING 8706
SWIDTH 500 0
DWIDTH 17 0
BBX 13 22 2 0
BITMAP
0780
0F60
0E10
0C10
0010
0018
0018
0018
0018
0F98
38D8
3058
7078
F078
E070
E070
E070
E060
60E0
60C0
3180
1F00
ENDCHAR
STARTCHAR 2206
ENCODING 8710
SWIDTH 617 0
DWIDTH 21 0
BBX 19 23 1 0
BITMAP
004000
00C000
00E000
00E000
01F000
017000
037000
023800
023800
043C00
041C00
0C1E00
080E00
080E00
100700
100700
200780
200380
200380
4001C0
4001C0
8001E0
FFFFE0
ENDCHAR
STARTCHAR 220F
ENCODING 8719
SWIDTH 823 0
DWIDTH 28 0
BBX 26 32 1 -7
BITMAP
FFFFFFC0
1E001E00
1E001E00
1E001E00
1E001E00
1E001E00
1E001E00
1E001E00
1E001E00
1E001E00
1E001E00
1E001E00
1E001E00
1E001E00
1E001E00
1E001E00
1E001E00
1E001E00
1E001E00
1E001E00
1E001E00
1E001E00
1E001E00
1E001E00
1E001E00
1E001E00
1E001E00
1E001E00
1E001E00
1E001E00
1E001E00
FFC0FFC0
ENDCHAR
STARTCHAR 2211
ENCODING 8721
SWIDTH 705 0
DWIDTH 24 0
BBX 20 32 2 -7
BITMAP
FFFFE0
7807E0
3C01E0
1C00E0
1E0060
0F0020
078020
038030
03C000
01E000
00F000
007000
007800
003C00
001E00
000E00
000E00
000400
000800
001000
002000
004000
00C000
018000
030010
060010
0C0030
180070
3001E0
3FFFE0
7FFFE0
FFFFE0
ENDCHAR
STARTCHAR 2212
ENCODING 8722
SWIDTH 529 0
DWIDTH 18 0
BBX 14 2 2 10
BITMAP
FFFC
FFFC
ENDCHAR
STARTCHAR 2219
ENCODING 8729
SWIDTH 235 0
DWIDTH 8 0
BBX 4 4 2 5
BITMAP
60
F0
F0
60
ENDCHAR
STARTCHAR 221A
ENCODING 8730
SWIDTH 558 0
DWIDTH 19 0
BBX 20 28 0 0
BITMAP
0000F0
0000C0
0000C0
000180
000180
000380
000300
000300
000700
000600
000600
000C00
380C00
F80C00
381800
1C1800
1C3800
1E3000
0E3000
0E7000
0F6000
076000
07C000
03C000
03C000
038000
018000
018000
ENDCHAR
STARTCHAR 221E
ENCODING 8734
SWIDTH 705 0
DWIDTH 24 0
BBX 21 12 2 4
BITMAP
1E07C0
7F0C20
619810
C07810
807008
802008
806008
806018
80D010
41D830
238FE0
1E03C0
ENDCHAR
STARTCHAR 222B
ENCODING 8747
SWIDTH 264 0
DWIDTH 9 0
BBX 15 32 -3 -6
BITMAP
001C
006E
0066
00C6
00C0
01C0
01C0
01C0
01C0
01C0
01C0
01C0
03C0
03C0
03C0
03C0
03C0
03C0
03C0
03C0
03C0
03C0
0380
0380
0380
0380
0380
0300
E300
E600
F600
7800
ENDCHAR
STARTCHAR 2248
ENCODING 8776
SWIDTH 558 0
DWIDTH 19 0
BBX 17 8 1 4
BITMAP
3E0080
E1C380
C03E00
000000
3E0080
FF8180
C1E300
003E00
ENDCHAR
STARTCHAR 2260
ENCODING 8800
SWIDTH 558 0
DWIDTH 19 0
BBX 15 14 2 1
BITMAP
0004
000C
0018
0030
FFFE
01C0
0180
0300
0700
FFFE
3800
7000
E000
4000
ENDCHAR
STARTCHAR 2264
ENCODING 8804
SWIDTH 558 0
DWIDTH 19 0
BBX 15 16 2 0
BITMAP
0006
003E
01FC
0FC0
FE00
F000
F800
3F00
07F0
00FE
001E
0000
0000
0000
FFFE
FFFE
ENDCHAR
STARTCHAR 2265
ENCODING 8805
SWIDTH 558 0
DWIDTH 19 0
BBX 15 16 2 0
BITMAP
8000
F000
7F00
0FE0
01FC
001E
007E
03F8
1FC0
FE00
E000
0000
0000
0000
FFFE
FFFE
ENDCHAR
STARTCHAR 22F2
ENCODING 8946
SWIDTH 558 0
DWIDTH 19 0
BBX 17 8 1 4
BITMAP
3E0080
E1C380
C03E00
000000
3E0080
FF8180
C1E300
003E00
ENDCHAR
STARTCHAR 25CA
ENCODING 9674
SWIDTH 500 0
DWIDTH 17 0
BBX 17 35 0 -8
BITMAP
008000
008000
01C000
01C000
03E000
036000
067000
063000
0E3000
0C1800
1C1800
180C00
380C00
300600
700600
600300
E00300
C00380
600300
600700
300600
300E00
180C00
180C00
0C1800
0C1800
0E3000
063000
076000
036000
03E000
01C000
01C000
008000
008000
ENDCHAR
STARTCHAR F000
ENCODING 61440
SWIDTH 794 0
DWIDTH 27 0
BBX 23 27 2 0
BITMAP
000080
000380
000780
000F80
000F00
000C00
0FC3E0
1FFFF8
3FFFFC
7FFFF8
7FFFF0
FFFFF0
FFFFE0
FFFFE0
FFFFE0
FFFFE0
FFFFF0
FFFFF0
7FFFF8
7FFFFC
7FFFFE
3FFFFC
3FFFFC
1FFFF8
0FFFF0
07FFE0
03C3C0
ENDCHAR
STARTCHAR F001
ENCODING 61441
SWIDTH 588 0
DWIDTH 20 0
BBX 19 24 1 0
BITMAP
00FC00
03FE00
060F00
0C0600
1C0000
1C0000
1C0000
3C0000
3C0000
3C0700
7FFF00
3CFF00
3C0F00
3C0F00
3C0F00
3C0F00
3C0F00
3C0F00
3C0F00
3C0F00
3C0F00
3C0F00
3E1F80
FFBFE0
ENDCHAR
STARTCHAR F002
ENCODING 61442
SWIDTH 588 0
DWIDTH 20 0
BBX 19 24 1 0
BITMAP
00F900
03FF00
0E1F00
0C0F00
1C0F00
3C0F00
3C0F00
3C0F00
3C0F00
FFCF00
3C0F00
3C0F00
3C0F00
3C0F00
3C0F00
3C0F00
3C0F00
3C0F00
3C0F00
3C0F00
3C0F00
3C0F00
7E1F80
FFBFE0
ENDCHAR
ENDFONT
